<svg xmlns="http://www.w3.org/2000/svg" xmlns:xlink="http://www.w3.org/1999/xlink" viewBox="0 0 736 736"><defs><style>.cls-1{fill:url(#radial-gradient);filter:url(#luminosity-invert-noclip);}.cls-2{isolation:isolate;}.cls-3{font-size:90.58px;fill:#343484;font-family:GoudyOldStyleT-Regular, Goudy Old Style;letter-spacing:-0.08em;}.cls-4{letter-spacing:0em;}.cls-5{letter-spacing:-0.02em;}.cls-6{letter-spacing:0em;}.cls-7,.cls-8{font-size:369.43px;font-family:DeVinneBT-Text, DeVinne Txt BT;}.cls-7{fill:#000e38;}.cls-8{fill:#192367;}.cls-9{fill:url(#radial-gradient-2);}.cls-10,.cls-16,.cls-17,.cls-18,.cls-19,.cls-20,.cls-21,.cls-22,.cls-23,.cls-24,.cls-25{mix-blend-mode:screen;}.cls-10{fill:url(#radial-gradient-3);}.cls-11{mask:url(#mask);}.cls-12{fill:#e0e6ef;}.cls-12,.cls-14{opacity:0.5;}.cls-13,.cls-15{fill:#fff;}.cls-13{opacity:0.6;}.cls-16{fill:url(#radial-gradient-4);}.cls-17{fill:url(#radial-gradient-5);}.cls-18{fill:url(#radial-gradient-6);}.cls-19{fill:url(#radial-gradient-7);}.cls-20{fill:url(#radial-gradient-8);}.cls-21{fill:url(#radial-gradient-9);}.cls-22{fill:url(#radial-gradient-10);}.cls-23{fill:url(#radial-gradient-11);}.cls-24{fill:url(#radial-gradient-12);}.cls-25{fill:url(#radial-gradient-13);}.cls-26{fill:url(#linear-gradient);}</style><radialGradient id="radial-gradient" cx="410.95" cy="139.94" r="40.96" gradientTransform="translate(0 -9.45) scale(1 1.04)" gradientUnits="userSpaceOnUse"><stop offset="0" stop-color="#040006"/><stop offset="0.1" stop-color="#2b272c"/><stop offset="0.29" stop-color="#6a686c"/><stop offset="0.47" stop-color="#9f9ea0"/><stop offset="0.63" stop-color="#c9c8c9"/><stop offset="0.78" stop-color="#e6e6e7"/><stop offset="0.91" stop-color="#f9f8f9"/><stop offset="1" stop-color="#fff"/></radialGradient><radialGradient id="radial-gradient-2" cx="412.3" cy="161.23" r="35.57" gradientTransform="translate(0 -9.45) scale(1 1.04)" gradientUnits="userSpaceOnUse"><stop offset="0" stop-color="#619bcb"/><stop offset="0.14" stop-color="#5d96c7"/><stop offset="0.31" stop-color="#5387ba"/><stop offset="0.49" stop-color="#416da5"/><stop offset="0.69" stop-color="#294b88"/><stop offset="0.83" stop-color="#142c6e"/><stop offset="0.86" stop-color="#1b3777"/><stop offset="0.91" stop-color="#2f548f"/><stop offset="0.97" stop-color="#5082b6"/><stop offset="1" stop-color="#619bcb"/></radialGradient><radialGradient id="radial-gradient-3" cx="410.6" cy="158.36" r="36.05" gradientTransform="translate(0 -9.45) scale(1 1.04)" gradientUnits="userSpaceOnUse"><stop offset="0" stop-color="#619bcb"/><stop offset="0.23" stop-color="#649dcc"/><stop offset="0.4" stop-color="#6da2cd"/><stop offset="0.55" stop-color="#7eabd0"/><stop offset="0.69" stop-color="#94b8d5"/><stop offset="0.83" stop-color="#b2c8da"/><stop offset="0.95" stop-color="#d5dce1"/><stop offset="1" stop-color="#e4e4e4"/></radialGradient><filter id="luminosity-invert-noclip" x="384.12" y="126.11" width="57.01" height="50.14" filterUnits="userSpaceOnUse" color-interpolation-filters="sRGB"><feColorMatrix values="-1 0 0 0 1 0 -1 0 0 1 0 0 -1 0 1 0 0 0 1 0" result="invert"/><feFlood flood-color="#fff" result="bg"/><feBlend in="invert" in2="bg"/></filter><mask id="mask" x="384.12" y="126.11" width="57.01" height="50.14" maskUnits="userSpaceOnUse"><rect class="cls-1" x="384.12" y="126.11" width="57.01" height="50.14"/></mask><radialGradient id="radial-gradient-4" cx="673.77" cy="107.62" r="2.2" gradientTransform="matrix(-0.15, 1.03, -0.99, -0.15, 611.38, -489.37)" gradientUnits="userSpaceOnUse"><stop offset="0" stop-color="#fff" stop-opacity="0.87"/><stop offset="1" stop-color="#040006" stop-opacity="0"/></radialGradient><radialGradient id="radial-gradient-5" cx="667.81" cy="132.03" r="2.2" xlink:href="#radial-gradient-4"/><radialGradient id="radial-gradient-6" cx="644.15" cy="84.45" r="2.2" xlink:href="#radial-gradient-4"/><radialGradient id="radial-gradient-7" cx="425.43" cy="134.52" r="1.85" gradientTransform="translate(0 -9.45) scale(1 1.04)" xlink:href="#radial-gradient-4"/><radialGradient id="radial-gradient-8" cx="645.08" cy="122.08" r="2.2" xlink:href="#radial-gradient-4"/><radialGradient id="radial-gradient-9" cx="650.41" cy="73.75" r="2.2" xlink:href="#radial-gradient-4"/><radialGradient id="radial-gradient-10" cx="626.43" cy="115.28" r="1.41" xlink:href="#radial-gradient-4"/><radialGradient id="radial-gradient-11" cx="648.39" cy="129.31" r="1.41" xlink:href="#radial-gradient-4"/><radialGradient id="radial-gradient-12" cx="677.78" cy="115.22" r="1.41" xlink:href="#radial-gradient-4"/><radialGradient id="radial-gradient-13" cx="665.12" cy="85.52" r="2.2" xlink:href="#radial-gradient-4"/><linearGradient id="linear-gradient" x1="445.6" y1="133.57" x2="387.57" y2="56.56" gradientUnits="userSpaceOnUse"><stop offset="0" stop-color="#1a5da4"/><stop offset="0.41" stop-color="#1884b2"/><stop offset="0.6" stop-color="#3394b9"/><stop offset="0.86" stop-color="#54a7c1"/><stop offset="1" stop-color="#61aec4"/></linearGradient></defs><title>logo</title><g class="cls-2"><g id="Capa_1" data-name="Capa 1"><text class="cls-3" transform="translate(43.15 527.32) scale(0.96 1)">T<tspan class="cls-4" x="47.81" y="0">e</tspan><tspan class="cls-5" x="85.8" y="0">c</tspan><tspan class="cls-6" x="120.57" y="0">hnology</tspan></text><text class="cls-7" transform="translate(27 450.85) scale(0.96 1)">WIF</text><text class="cls-8" transform="translate(27 450.85) scale(0.96 1)">WIF</text><g id="globe"><ellipse class="cls-9" cx="411.41" cy="162.54" rx="30.74" ry="31.92"/><path class="cls-10" d="M440.85,171.3c-.41,0-.93.21-.94.35s-.57.4-.75.48a2.5,2.5,0,0,0-.62.87c-.08.2-.53.14-.7.22s-.52.37-.52.54-.09.15-.21,0l-.22.24-.26.3a2.48,2.48,0,0,1-.82,1.16c-.17,0-.2.91-.2,1.26a1.66,1.66,0,0,0,.29,1l0,.28.06.55a1,1,0,0,0,.31.88,4.22,4.22,0,0,0,1.14-.22,2,2,0,0,0,.42-.17,32.44,32.44,0,0,0,3.17-7.64Zm-50.86.82c0,.09.51.67.72.87a5.82,5.82,0,0,1,.76,1.48,2.47,2.47,0,0,1,0,1c0,.12.1.39.13.5a8.13,8.13,0,0,0-.11,1.43c.08.38-.43,1.56-.42,2.14s.27,1.35.37,1.29.14.53,0,.6-.37.54-.28.56,0,.48,0,.67.18,1.4.21,1.7a9.06,9.06,0,0,0,.54,1.29c.09.25.18.73.21.8a1.21,1.21,0,0,0,.08.15,2.6,2.6,0,0,1,.44.21,2.64,2.64,0,0,0,1,0c.22,0,0-.25-.08-.36s-.18-.65-.3-.71a1.28,1.28,0,0,1-.06-.89c.1-.15.49-.4.54-.52s.05-.73-.05-.81,0-.81,0-1.17.6-.69.65-1,.78-.59.95-.74a1.87,1.87,0,0,0,.23-1.14c-.08-.17.27-.32.43-.32s.33-.12.39-.12.25-.36.35-.45.31-1,.49-1.09a1.53,1.53,0,0,0,.34-.82,2.62,2.62,0,0,1,.37-.75,4,4,0,0,1,.91-.52,6,6,0,0,0,.36-1.62c0-.41.26-1,.27-1.1s.23-.25.27-.3a7.53,7.53,0,0,1,.31-.69,3.46,3.46,0,0,0,.5-.74,4.77,4.77,0,0,1,.13-.64v-.73c-.12-.35-.49-.78-.59-.69s-.52-.31-.74-.39a4.09,4.09,0,0,0-.9-.15c-.14,0-.61-.4-.83-.48s-.76-.18-.86-.24-.23-.91-.67-1.18a4.83,4.83,0,0,1-1.29-1.15c-.08-.23-.92-.73-1.19-.88a1,1,0,0,0-.7-.13c-.05,0-.38-.46-.54-.6s-.67-.26-.7-.13-.36.06-.44,0-.34,0-.46.09-.54.7-.73.86-.42-.15-.55-.21a1.36,1.36,0,0,0-.74.2c-.13.1-.44-.7-.36-1.07s-.32-1.1-.62-1.12-.39-.79-.33-1.07-.54-.46-.69-.48-.53.38-.59.57-1.43-.26-1.27-1.11a3.92,3.92,0,0,1,1-1.83,2.37,2.37,0,0,1,1.23,0,.31.31,0,0,0,.4-.05,2.49,2.49,0,0,1,1,.1c.21.09.52.95.74,1.05s.3-.55.34-.71a1.69,1.69,0,0,0-.16-.68,2.38,2.38,0,0,1,.69-1.33,1.64,1.64,0,0,0,.66-.86c0-.1.27-.18.34-.23s0-.88.12-1.06a4,4,0,0,1,1-.65.81.81,0,0,0,.28-.71c-.07-.09.51-.61.82-.71s.57.18.49.23.48-.26.66-.38,0-.54-.13-.65-.05-.57.11-.61.3-.44.26-.52.67.07.94-.14.08.5-.12.79a.32.32,0,0,0,.27.5c.13-.06.26.15.29.23s.3-.08.48,0,.29-.26.3-.41-.43-.48-.5-.66a12,12,0,0,1-.11-1.49c0-.22-.3-.58-.39-.52s-.28-.58-.43-.72a.82.82,0,0,1-.18-.55c0-.1-.5-.66-.63-.92s-.29-.2-.31-.09-.37.13-.51.12-.27-.6-.27-.82-.66-.26-.77-.44-.54-.09-.61-.22a.68.68,0,0,0-.52-.19c-.08,0,0,1.64-.11,2.07s-.42.81-.55.8-.05.31,0,.28-.25.47-.29.79-.36,0-.41-.31-.36-.7-.42-.59-.27-.12-.37-.06-.68-.35-.92-.49-.37-.89-.51-1,0-.16,0-.27.46-.56.6-.73a8.73,8.73,0,0,1,.85-1,.93.93,0,0,0,.33-.62,5.28,5.28,0,0,1,1.11-.45c.24-.09.45-.79.49-1a.85.85,0,0,0-.27-.64c-.11,0,.34-.07.49,0s.61-.14.8,0,.55.33.82.5l-.06.52-.11.88c-.71.31-.91.83-.67.82a5.73,5.73,0,0,1,1.7.75c.32.24.42-.34.51-.54a1.48,1.48,0,0,0,0-.87c-.08-.11.37-.07.5.05s.27-.13.37-.17.14-.53.2-.62-.21-.2-.22-.32-.52-.35-.68-.43a.43.43,0,0,1-.12-.51c.08-.06-.06-.53-.14-.68s-.61-.28-.79-.28-.36-.43-.46-.49a2.62,2.62,0,0,0-1-.09c-.17.05-.48-.5-.76-.33s-.58-.2-.71-.27-.8.67-.79,1.19a1.48,1.48,0,0,0,.36,1c.1,0,0,.49-.14.62s-.4-.14-.29-.26-.29-.67-.43-.89a1.67,1.67,0,0,0-.68-.4l-.4.47a1.22,1.22,0,0,1,.05.62c-.1.32-.36.37-.37.23s-.14-.11-.29-.13a32.45,32.45,0,0,0-6.93,16.72,1.94,1.94,0,0,1,.36.54c.09.28.56.47.64.52s.12-.54.05-.69.12-.25.11-.13a4.38,4.38,0,0,0,.59.83c.15.19.3,1.41.44,1.67a5.49,5.49,0,0,0,1.93.9,2.36,2.36,0,0,1,1.07.75c.08.15.66.22.79.28s.42.47.55.55a.71.71,0,0,1,.22.39c0,.06.77.37,1,.58a.4.4,0,0,0,.55.07c.06-.09.21.42.29.6a1.18,1.18,0,0,1,0,.68,8.84,8.84,0,0,1-.3,1,4.27,4.27,0,0,0-.34,1.55,1.83,1.83,0,0,0,.57.78.19.19,0,0,1,0,.34c-.12,0-.07,1.13.22,1.29A1.12,1.12,0,0,1,390,172.12Zm3.62-19.48h0Zm-2.1-13.49c.37-.06,1-.17,1-.28a.69.69,0,0,0,0-.44h.18c.14,0,.37-.8.52-1a7.53,7.53,0,0,1,1.19-.59,8.54,8.54,0,0,1,.81-.62c.17-.05.42-.46.38-.54s.57-.46.8-.57.35-.38.26-.39-1.34.69-2.52,1.38a31.17,31.17,0,0,0-3.79,3.16C390.7,139.26,391.27,139.19,391.51,139.15ZM413.79,179a11.1,11.1,0,0,0,1.28-1.49,3.52,3.52,0,0,0,.43-1.17,1.09,1.09,0,0,1,.5-.48,21.61,21.61,0,0,1,.87-2.14,6.5,6.5,0,0,0,.72-2.86,9.38,9.38,0,0,1,.31-2.2,2.91,2.91,0,0,1,.66-.94,20.81,20.81,0,0,0,1.26-1.88,4.29,4.29,0,0,0,.48-1.73c-.05-.24-.64-.41-.75-.29a1.93,1.93,0,0,1-.84.22c-.18,0-.58-1-.84-1.19s-.48-1.33-.62-1.55a10,10,0,0,0-.68-.88c-.13-.12-.15-.72-.18-.89s.25.11.29.35a11.67,11.67,0,0,0,.9,1.53c.2.33.73,1.36.87,1.68s1.32.16,1.7,0a2.53,2.53,0,0,0,.88-.62c0-.11.63-.4.8-.54s.32-.88.43-1-.09-.83-.22-1a1.06,1.06,0,0,0-.86-.3c-.13.08-.39-.47-.48-.68s-.56-.45-.62-.59.13-.36.2-.41a3.92,3.92,0,0,1,1.19.9,6.75,6.75,0,0,1,.58,1,1.21,1.21,0,0,0,.88,0c.15-.12.33-.09.39.06l.21,0,.75-.12a1.57,1.57,0,0,1,.45.83.77.77,0,0,0,.36.44c.15,0,.25.54.3.67s.47.89.56,1.21a7.7,7.7,0,0,0,.54,1.11,2.83,2.83,0,0,1,.16.79.56.56,0,0,0,.44.38c.17,0,.51-1.13.6-1.54a1.16,1.16,0,0,1,.43-.76c.08,0,.14-.23.14-.32s.43-.08.47-.19.17-.85.32-1a6.69,6.69,0,0,1,.9-.56c.19-.07.68.37.8.58a1.85,1.85,0,0,1,.17.82c0,.09.26.54.52.53s.34.35.35.47.36.49.43.66a1.5,1.5,0,0,1,0,.71,2.52,2.52,0,0,0,0,.85,8.1,8.1,0,0,0,1.16,1.27c.3.26.45-.52.29-.77s-.68-.81-.81-1a2.14,2.14,0,0,1-.1-1c0-.19.46.1.63.24a1.36,1.36,0,0,1,.41.55c0,.1,1.09-.53,1.13-1.21a7.27,7.27,0,0,1,.43-1.63c0-.18-.11-.43-.2-.44s.16-.52.46-.51,1-.84,1.21-1.17a2.6,2.6,0,0,1,.56-.65,6,6,0,0,0,.33-1.16,3.65,3.65,0,0,0-.2-1,3.32,3.32,0,0,0-.36-.68,1.5,1.5,0,0,1-.09-.67c0-.08.31-.18.34-.25s.34-.42.32-.58.19.2.34.32.3.94.48,1,.89-.86.81-1.48a2,2,0,0,1,.38-1.47,3.94,3.94,0,0,0,.7-.91,32.25,32.25,0,0,0-7.59-12.41h-.12l-.26-.06c-.44-.1-.7-.59-.62-.7a.32.32,0,0,0,0-.22l-.75-.68h-.56a2.3,2.3,0,0,1-.94-.31c-.1-.11-.45.09-.47.29s-.63.29-.68.44a.32.32,0,0,1-.43.08c-.06-.08-.62.2-.9.25a4.63,4.63,0,0,0-.92.33,1.5,1.5,0,0,0-.47.48c0,.12-.4.33-.52.38s-.09.59.06.66-.28-.07-.46-.17-.39.23-.45.34-.23-.07-.22-.23-.46-.29-.52-.16-.39,0-.52-.12-.71.55-.93.78a2.48,2.48,0,0,1-1.44.31c-.19-.08-.38.47-.22.51s-.42,0-.74,0a5.08,5.08,0,0,0-1.47.59.24.24,0,0,1-.4-.17c0-.13-.35-.25-.46-.29s-.31.72-.49.87-.41-.59-.84-.71-1.11-.56-1.3-.61a2.64,2.64,0,0,1-.69-.59,1.89,1.89,0,0,0-.84-.22,2.7,2.7,0,0,0-.9.48c-.16.14-.39.11-.46.16s-.73.71-1,.91a8.27,8.27,0,0,0-.83,1.31.58.58,0,0,1-.44.26c-.08,0-.15.24-.15.33s-.75.49-.82.84a8.43,8.43,0,0,0,.07,1.44c0,.28.28.85.48.86s.1.48,0,.62.13.28.12.39-.52.27-.68.34a1.24,1.24,0,0,0-.45.58c0,.12-.52.21-.69.37a3.93,3.93,0,0,1,.14-.37.64.64,0,0,0-.11-.58c-.08-.07-.12-1-.24-1.2a4,4,0,0,0-.52-.6c-.08-.06.05-.31.1-.41s-.42-.16-.54-.09-.19,1-.25,1.25a.83.83,0,0,0,.31.66c.07,0,.05.47-.11.49s-.31.68-.23.83-.12.45-.21.52.62,0,1,0,.58.14.55.17-.63.12-.73.27-.51.43-.59.54.13.36.3.35.36.61.5.73.08.44,0,.53-.86-.06-1.17,0-.69.75-.72,1a6.37,6.37,0,0,0,.09,1.18c0,.2.68.33.8.42s.74,0,.87.06.54-.64.62-1,.73-.93.87-1.15.84-.2,1-.31.08.55.16.92.75.32.65,0,.07-.49.09-.37.67.4.8.59.09.61-.06.6-.15.45,0,.5.35-.51.52-.6.29-.44.22-.46.14-.34.23-.24a4,4,0,0,0-.62-1c-.27-.29-.08-.16.43.28l.35.52c.07.09.16.37.22.48l.08.15a3.67,3.67,0,0,1,.13.81.57.57,0,0,0,.45.38c.17,0,.3.08.26.09s.11.35.28.36.24-.44.07-.45-.14-.66-.16-.94.12-.51.18-.51,0,.58,0,.72a2,2,0,0,0,.15.59l.17.14.39.31c.56-.17,1.31,0,1.28.08s.41.15.44,0,0,0,0,.14-.37.65-.43.89-1.35.08-1.9,0-1.37.15-1.43.32-.93-.39-1.32-.57-.71-.8-.79-.88.07-.29,0-.41-.94-.15-1.21,0-1.62.25-1.94.4a1.66,1.66,0,0,1-1,0c-.15,0-.51.43-.69.52a2.55,2.55,0,0,0-.52,1.45l-.25.5-.16.32a7.33,7.33,0,0,0-1.09,1.77,11.83,11.83,0,0,0-.26,2.51,8.21,8.21,0,0,0,.62,2.12,5,5,0,0,0,1.24,1.25,4.29,4.29,0,0,0,1.48.2.91.91,0,0,0,.75-.65l.43,0,.2,0c0,.25.65.45.81.54a1.31,1.31,0,0,0,.7,0c.13,0,.27,1.14.17,1.48a7,7,0,0,0,.31,1.89c.09.36.49,1.34.53,1.69a17.5,17.5,0,0,1-.28,1.93,7.71,7.71,0,0,0,.64,2,6.9,6.9,0,0,1,.25,1.44c0,.2.59,1.38.72,1.87S413.39,179.2,413.79,179Zm25.39-14.52c0,.09.41-.22.63-.25s.36-.66.19-.7-.4-.52-.52-.58-.37.2-.36.39-.41.26-.48.42-.07.27,0,.25S439.14,164.35,439.18,164.44Zm-.45,3.36c.11,0,0-.65-.24-.7s-.87.81-.75,1.3.26.46.32.36.45.07.56.11.11-.08,0-.26A.93.93,0,0,1,438.72,167.79Zm-1.26-.6c0-.22.07-.9.1-1s-.36-.53-.55-.6-.81,1.33-1.26,1.58a1.33,1.33,0,0,0-.49,1.3c.12.2,1,.3,1.21.45s.34,0,.44,0,.07-.09,0-.12.32-.42.38-.67S437.44,167.42,437.46,167.2Zm-2.53,2.33a.68.68,0,0,0-.79.22c0,.14,1.34.37,1.8.5s.74.17.64.09S435.28,169.66,434.93,169.53Zm2.8-9.3c.11-.16-.15-.91-.29-.74s0,.6,0,.76S437.62,160.38,437.73,160.22Zm.83,1.61c.08-.19-.1-.41-.4-.47s-.25.87-.12,1S438.48,162,438.56,161.83Zm1.55,5.77c.36.26,1.15.14,1.18-.36C440.94,167,440.08,167,440.11,167.6Zm-.19-11.41a.53.53,0,0,0-.18.49h-.06c-.12,0-.13.49,0,.57s.42-.38.58-.49a.84.84,0,0,1,.52-.14,1.32,1.32,0,0,0,.62-.19.55.55,0,0,0,.17-.22c-.07-.36-.15-.71-.23-1.06-.15.11-.32.24-.39.31S440.11,156,439.92,156.18ZM431.78,166h0C431.72,166,431.71,166,431.78,166Zm2.22,2.15A3.88,3.88,0,0,0,433,167l-.15-.25-.16-.28c-.15-.31-.59-.54-.63-.63s-.18.27-.33.16l.48.35a22,22,0,0,1,1.39,2.54C433.83,169,434.13,168.45,434,168.15Zm-6.36-3.36c-.11.24.59.74.64.62a1.41,1.41,0,0,0-.21-.82C427.94,164.46,427.75,164.55,427.64,164.78Zm-9.31,11.13c0,.25.51.44.65.4a2.73,2.73,0,0,0,.59-1,5.06,5.06,0,0,0,.1-.79.76.76,0,0,1,.12-.39,1.36,1.36,0,0,0,.2-.56,15.8,15.8,0,0,0-.3-1.83c0-.23-.26.12-.32.35s-.7.71-.84.91a2,2,0,0,0-.24,1,1.51,1.51,0,0,1-.12.7A7.53,7.53,0,0,0,418.33,175.91ZM395.63,185H396C396.12,184.52,395.6,184.6,395.63,185Zm11.29-49.48a1.41,1.41,0,0,1-.72-.16,1.74,1.74,0,0,0-1-.08c-.2.09-.06-.5.21-.57s0-.47-.25-.47-1-.11-1.19-.07-.5-.12-.63-.14a12.37,12.37,0,0,1-1.41.25,9.71,9.71,0,0,0-1.65.09c-.22.06-.38.51-.35.66s-1,.16-1.3.16a10.29,10.29,0,0,0-2.46.63c-.44.25-.79.9-.64.91s-.25.38-.48.47-.81.12-.94.26.14.23.2.33.21-.08.36,0a6.93,6.93,0,0,0,.77.18c.13.05-.42.16-.68.18s-.2.55,0,.62.76.15.81.06.65.1.91.13.47.72.55.87a2.27,2.27,0,0,1,.08.83c0,.15.47.43.56.33s.06.24-.13.22-.07.57.18.65.08.44-.06.55-.06.45-.21.58.51,1.29.5,1.89.36,1.09.49,1.09.61.12.68.25.29-.09.38-.19a5,5,0,0,0,.43-.64,16.12,16.12,0,0,0,.52-1.59c0-.13.59,0,.71-.11a6,6,0,0,0,.58-.44c.1-.09.88-.43,1.09-.59s.56-.84.73-1-.08-.1-.29-.24a.23.23,0,0,1-.05-.38,2.39,2.39,0,0,1,.9.19c.22.09.63-.22.47-.34s-.08-.11,0-.06.16-.39.07-.48.63-.63.51-1.14.2-1,.39-1,.14-.58-.09-.63,0-.11.07-.19a1.25,1.25,0,0,0,.15-.69c-.05-.1.35-.21.42-.33a1.89,1.89,0,0,1,.7-.38C407,135.95,407.09,135.5,406.91,135.52Zm4,.42c-.22-.08-.66.18-.61.32s-.36-.18-.65,0-.37.69-.24.76.23.49.24.57.57,0,.71-.1.12.43,0,.58.05.45.21.47.37.41.53.4.44-.65.5-.89.6-.05.85,0,.34-.89.07-1-.6-.07-.71-.18a.91.91,0,0,0-.42-.23C411.26,136.58,411.14,136,410.92,135.94Zm2.15.46a1.48,1.48,0,0,0,1-.41c.11-.1-1.2-.38-1.7-.4s-.9.05-.89.16A4.8,4.8,0,0,0,413.08,136.4Zm-7.93,12.2c-.11-.05-.18.4-.15.57s.43.15.6.12a.34.34,0,0,0,.3-.32c0-.15-.25-.81-.35-.81S405.26,148.65,405.15,148.6Zm1.29-5.19c-.09-.16-.77-.14-.94-.15a1.92,1.92,0,0,1-.77-.3c-.09-.11-.17.44-.32.51s.08.17.14.12,0,.28-.08.4.45.2.51.38a.44.44,0,0,0,.48.26c.21,0,.62-.26.76-.27S406.52,143.58,406.43,143.41Zm14.32-4.05c.23-.24,1.2-.57,1.31-.83a.32.32,0,0,0-.17-.46.38.38,0,0,0-.24.17s-1.13.31-1.47.48a3.82,3.82,0,0,0-.88.58,14.6,14.6,0,0,0-.46,1.42c-.08.13.37.59.57.72a.72.72,0,0,0,.55,0,3.14,3.14,0,0,0-.21-1.1C419.65,140.11,420.52,139.6,420.75,139.36Zm-1.18-3c.36.37.56-.17,1-.11C420.52,135.52,419.53,135.78,419.57,136.39Zm7.07.14c0,.14,1,.25,1.3.2s-.06-.54-.5-.51S426.65,136.4,426.64,136.53Zm-36.85,7.84c-.11.1,0,.62.19.64s.53-.78.78-.62.42.22.38.14a7.38,7.38,0,0,0-.84-.47C390.21,144,389.9,144.27,389.79,144.37Zm2.6,17.55c0,.09.44.07.52-.07s0-.26-.09-.26S392.39,161.83,392.39,161.92Zm-2-.76c.21,0,.11.32.16.44s.56.23.66.32.36-.16.57-.14-.07-.73-.41-.71-.61-.32-.69-.36a5.4,5.4,0,0,1-.59-.38,4.61,4.61,0,0,0-1.28-.17,1,1,0,0,0-.67.41c0,.1.47.17.61.09a1.44,1.44,0,0,1,1,.26A.75.75,0,0,0,390.42,161.16Zm-.93.76c0,.09.45,0,.55,0s.11-.07,0-.17S389.49,161.83,389.49,161.92Zm.32-2.4c-.12,0-.21.14-.21.23a.16.16,0,0,0,.14.16C389.82,159.92,389.92,159.57,389.81,159.52Zm.94.08a.44.44,0,0,0-.29-.16c-.06,0-.1.15-.09.34S390.78,159.69,390.75,159.6Zm.68,1.08c.18-.09.2-.32.1-.3s-.31-.32-.42-.37-.21.2-.21.31.07.18.15.16S391.24,160.77,391.42,160.68Zm50,7.31c-.09,0-.54.11-.6,0s-.15.19-.25.24,0,.29.1.21.53.19.88.42c.07-.36.13-.72.19-1.08Z"/><g class="cls-11"><ellipse class="cls-12" cx="411.28" cy="151.18" rx="23.14" ry="20.19"/></g><path class="cls-13" d="M419.2,131.54a10,10,0,0,0-1.57-.51c-4.77-1.11-9.86,1.43-14.22,6.43s-7.91,12.25-9.83,20.82v0c-1.91,8.57-1.75,16.77,0,23.1,1.64,5.8,4.66,10.06,8.74,11.65-4-1.65-6.92-5.86-8.53-11.56-1.79-6.34-1.95-14.54,0-23.1v0c1.91-8.57,5.53-15.9,9.83-20.82s9.45-7.54,14.22-6.43A10,10,0,0,1,419.2,131.54Z"/><path class="cls-13" d="M381.54,171.12a11,11,0,0,0,.18,1.69c.93,5,5.19,8.77,11.33,10.92s13.93,2.62,22.23,1h0c8.29-1.61,15.45-5,20.3-9.26,4.45-3.87,7-8.43,6.76-12.94.13,4.43-2.39,8.9-6.77,12.7-4.86,4.23-12,7.65-20.3,9.26h0c-8.3,1.61-16.19,1.1-22.23-1s-10.4-6-11.33-10.92A11,11,0,0,1,381.54,171.12Z"/><path class="cls-13" d="M392.75,137.12a10.2,10.2,0,0,0-1.41.88c-4,3-5.55,8.58-4.87,15.29s3.51,14.29,8.38,21.49l0,0c4.87,7.19,10.86,12.54,16.6,15.38,5.26,2.6,10.32,3.11,14.19,1-3.83,2-8.82,1.44-14-1.12-5.74-2.84-11.73-8.19-16.6-15.38l0,0c-4.87-7.19-7.72-14.88-8.38-21.49s.9-12.33,4.87-15.29A10.25,10.25,0,0,1,392.75,137.12Z"/><g class="cls-14"><path class="cls-15" d="M394.8,157.7a3.57,3.57,0,1,1,3.43-3.57A3.51,3.51,0,0,1,394.8,157.7Zm0-7.1a3.53,3.53,0,1,0,3.4,3.53A3.47,3.47,0,0,0,394.8,150.61Z"/><path class="cls-15" d="M394.8,159.77a5.64,5.64,0,1,1,5.43-5.64A5.54,5.54,0,0,1,394.8,159.77Zm0-11.22a5.59,5.59,0,1,0,5.38,5.58A5.49,5.49,0,0,0,394.8,148.56Z"/><path class="cls-15" d="M394.8,155.9a1.76,1.76,0,1,1,1.7-1.76A1.73,1.73,0,0,1,394.8,155.9Zm0-3.5a1.74,1.74,0,1,0,1.67,1.73A1.7,1.7,0,0,0,394.8,152.4Z"/></g><g class="cls-14"><path class="cls-15" d="M432,162.25a3.25,3.25,0,1,1,3.12-3.24A3.19,3.19,0,0,1,432,162.25Zm0-6.45a3.21,3.21,0,1,0,3.09,3.21A3.16,3.16,0,0,0,432,155.79Z"/><path class="cls-15" d="M432,163.8a4.8,4.8,0,1,1,4.62-4.8A4.72,4.72,0,0,1,432,163.8Zm0-9.55A4.76,4.76,0,1,0,436.6,159,4.67,4.67,0,0,0,432,154.25Z"/><path class="cls-15" d="M432,160.95a1.95,1.95,0,1,1,1.87-1.95A1.91,1.91,0,0,1,432,160.95Zm0-3.86a1.92,1.92,0,1,0,1.84,1.91A1.88,1.88,0,0,0,432,157.09Z"/></g><g class="cls-14"><path class="cls-15" d="M427.62,182.7a2.48,2.48,0,1,1,2.39-2.48A2.44,2.44,0,0,1,427.62,182.7Zm0-4.93a2.46,2.46,0,1,0,2.36,2.45A2.41,2.41,0,0,0,427.62,177.77Z"/><path class="cls-15" d="M427.62,181.71a1.49,1.49,0,1,1,1.43-1.49A1.46,1.46,0,0,1,427.62,181.71Zm0-3a1.46,1.46,0,1,0,1.41,1.46A1.44,1.44,0,0,0,427.62,178.76Z"/></g><g class="cls-14"><path class="cls-15" d="M404.7,189.16a3.48,3.48,0,1,1,3.34-3.47A3.41,3.41,0,0,1,404.7,189.16Zm0-6.91a3.44,3.44,0,1,0,3.31,3.44A3.38,3.38,0,0,0,404.7,182.24Z"/><path class="cls-15" d="M404.7,187.77a2.08,2.08,0,1,1,2-2.08A2,2,0,0,1,404.7,187.77Zm0-4.13a2.05,2.05,0,1,0,2,2.05A2,2,0,0,0,404.7,183.63Z"/></g><path class="cls-13" d="M429.43,137.81c-2.34-7-5.95-11-10.15-11.5-3.09-.33-6.14.93-9.07,4.33l.36,0c2.82-3.2,5.74-4.36,8.68-4,4.1.44,7.63,4.47,9.94,11.33,2.36,7,3.13,16.11,2.16,25.6s-3.55,18.22-7.28,24.58-7.9,9.39-12,8.94a8.64,8.64,0,0,1-5.31-2.92l-.41-.06a9,9,0,0,0,5.7,3.25,7.28,7.28,0,0,0,.79,0c4,0,8-3.2,11.46-9.11,3.74-6.39,6.34-15.16,7.31-24.69S431.81,144.87,429.43,137.81Z"/><path class="cls-13" d="M436,132.61c-3.2-3.32-8.91-3.67-16.09-1l-.31.12.44.13c7.06-2.64,12.65-2.31,15.77.92s3.43,9.06.87,16.41c-2.61,7.52-7.9,15.65-14.89,22.91s-14.83,12.75-22.07,15.46c-7.07,2.65-12.69,2.33-15.8-.91-2.74-2.84-3.31-7.79-1.63-14l-.15-.48c-1.85,6.48-1.29,11.68,1.58,14.66a10,10,0,0,0,7.47,2.77,25,25,0,0,0,8.62-1.79c7.28-2.73,15.15-8.24,22.17-15.53h0c7-7.28,12.32-15.46,14.95-23S439.17,135.93,436,132.61Z"/><path class="cls-13" d="M434.06,159.91c-6.06-3.56-14.31-5.9-23.23-6.6h0c-8.91-.7-17.39.34-23.9,2.91s-10.13,6.26-10.44,10.47c-.29,4.06,2.59,8.15,8.15,11.58l-.24-.45c-5.23-3.33-7.95-7.25-7.67-11.12.3-4.11,3.95-7.75,10.28-10.25s14.93-3.59,23.81-2.89h0c8.87.7,17.07,3,23.1,6.57s9,7.63,8.68,11.74c-.21,2.83-1.93,5.45-5.16,7.65l-.33.52a17,17,0,0,0,2.2-1.71,9.62,9.62,0,0,0,3.54-6.44C443.17,167.67,440,163.42,434.06,159.91Z"/></g><path class="cls-16" d="M404.37,188.09a2.27,2.27,0,0,1-1.84-2.6,2.21,2.21,0,0,1,2.5-1.92,2.27,2.27,0,0,1,1.85,2.6A2.21,2.21,0,0,1,404.37,188.09Z"/><path class="cls-17" d="M381.12,178.2a2.27,2.27,0,0,1-1.84-2.6,2.21,2.21,0,0,1,2.5-1.92,2.27,2.27,0,0,1,1.85,2.6A2.21,2.21,0,0,1,381.12,178.2Z"/><path class="cls-18" d="M431.69,161.26a2.27,2.27,0,0,1-1.84-2.6,2.21,2.21,0,0,1,2.5-1.92,2.27,2.27,0,0,1,1.85,2.6A2.21,2.21,0,0,1,431.69,161.26Z"/><path class="cls-19" d="M425.1,132.55a2.27,2.27,0,0,1-1.84-2.6,2.21,2.21,0,0,1,2.5-1.92,2.27,2.27,0,0,1,1.85,2.6A2.21,2.21,0,0,1,425.1,132.55Z"/><path class="cls-20" d="M394.34,156.39a2.27,2.27,0,0,1-1.84-2.6,2.21,2.21,0,0,1,2.5-1.92,2.27,2.27,0,0,1,1.85,2.6A2.21,2.21,0,0,1,394.34,156.39Z"/><path class="cls-21" d="M441.35,169.34a2.27,2.27,0,0,1-1.84-2.6,2.21,2.21,0,0,1,2.5-1.92,2.27,2.27,0,0,1,1.85,2.6A2.21,2.21,0,0,1,441.35,169.34Z"/><path class="cls-22" d="M404,137.5a1.46,1.46,0,0,1-1.19-1.67,1.42,1.42,0,0,1,1.61-1.23,1.46,1.46,0,0,1,1.19,1.67A1.42,1.42,0,0,1,404,137.5Z"/><path class="cls-23" d="M386.82,157.87a1.46,1.46,0,0,1-1.19-1.67,1.42,1.42,0,0,1,1.61-1.23,1.46,1.46,0,0,1,1.19,1.67A1.42,1.42,0,0,1,386.82,157.87Z"/><path class="cls-24" d="M396.38,190.23a1.46,1.46,0,0,1-1.19-1.67,1.42,1.42,0,0,1,1.61-1.23A1.46,1.46,0,0,1,398,189,1.42,1.42,0,0,1,396.38,190.23Z"/><path class="cls-25" d="M427.51,182.62a2.27,2.27,0,0,1-1.84-2.6,2.21,2.21,0,0,1,2.5-1.92,2.27,2.27,0,0,1,1.85,2.6A2.21,2.21,0,0,1,427.51,182.62Z"/><path class="cls-26" d="M345.26,95.15a7.48,7.48,0,0,1-5.88-12.09c1.6-2,8.71-9.54,20-17C374,56.52,390,50.9,405.57,49.85,432.28,48,458,59,482,82.31A7.47,7.47,0,0,1,471.56,93c-20.67-20.11-42.37-29.63-64.48-28.3-16.47,1-30.34,7.95-39.06,13.61a85.94,85.94,0,0,0-16.88,14A7.44,7.44,0,0,1,345.26,95.15Zm22.94,16.15c1.72-2,17.42-19.28,40-20.32,15.39-.71,30.91,6.29,46.13,20.82A7.47,7.47,0,0,0,464.64,101C446.35,83.53,427.13,75.14,407.5,76c-28.19,1.3-47.08,21.41-50.58,25.43a7.47,7.47,0,0,0,11.27,9.82ZM386,130.37c1.44-2.41,10.19-11.34,21.8-12.58,9.84-1.06,19.7,3.61,29.29,13.86A7.47,7.47,0,0,0,448,121.44c-16.16-17.27-31.65-19.6-41.8-18.51-17.14,1.84-29.66,14.12-33,19.78A7.47,7.47,0,1,0,386,130.37Z"/></g></g></svg>