<svg xmlns="http://www.w3.org/2000/svg" xmlns:xlink="http://www.w3.org/1999/xlink" viewBox="0 0 1385.56 418.94"><defs><style>.cls-1{fill:url(#radial-gradient);}.cls-2{isolation:isolate;}.cls-3{opacity:0.3;}.cls-4{opacity:0;fill:url(#radial-gradient-2);}.cls-5{opacity:0.02;fill:url(#radial-gradient-3);}.cls-6{opacity:0.05;fill:url(#radial-gradient-4);}.cls-7{opacity:0.07;fill:url(#radial-gradient-5);}.cls-8{opacity:0.1;fill:url(#radial-gradient-6);}.cls-9{opacity:0.12;fill:url(#radial-gradient-7);}.cls-10{opacity:0.15;fill:url(#radial-gradient-8);}.cls-11{opacity:0.17;fill:url(#radial-gradient-9);}.cls-12{opacity:0.2;fill:url(#radial-gradient-10);}.cls-13{opacity:0.22;fill:url(#radial-gradient-11);}.cls-14{opacity:0.24;fill:url(#radial-gradient-12);}.cls-15{opacity:0.27;fill:url(#radial-gradient-13);}.cls-16{opacity:0.29;fill:url(#radial-gradient-14);}.cls-17{opacity:0.32;fill:url(#radial-gradient-15);}.cls-18{opacity:0.34;fill:url(#radial-gradient-16);}.cls-19{opacity:0.37;fill:url(#radial-gradient-17);}.cls-20{opacity:0.39;fill:url(#radial-gradient-18);}.cls-21{opacity:0.41;fill:url(#radial-gradient-19);}.cls-22{opacity:0.44;fill:url(#radial-gradient-20);}.cls-23{opacity:0.46;fill:url(#radial-gradient-21);}.cls-24{opacity:0.49;fill:url(#radial-gradient-22);}.cls-25{opacity:0.51;fill:url(#radial-gradient-23);}.cls-26{opacity:0.54;fill:url(#radial-gradient-24);}.cls-27{opacity:0.56;fill:url(#radial-gradient-25);}.cls-28{opacity:0.59;fill:url(#radial-gradient-26);}.cls-29{opacity:0.61;fill:url(#radial-gradient-27);}.cls-30{opacity:0.63;fill:url(#radial-gradient-28);}.cls-31{opacity:0.66;fill:url(#radial-gradient-29);}.cls-32{opacity:0.68;fill:url(#radial-gradient-30);}.cls-33{opacity:0.71;fill:url(#radial-gradient-31);}.cls-34{opacity:0.73;fill:url(#radial-gradient-32);}.cls-35{opacity:0.76;fill:url(#radial-gradient-33);}.cls-36{opacity:0.78;fill:url(#radial-gradient-34);}.cls-37{opacity:0.8;fill:url(#radial-gradient-35);}.cls-38{opacity:0.83;fill:url(#radial-gradient-36);}.cls-39{opacity:0.85;fill:url(#radial-gradient-37);}.cls-40{opacity:0.88;fill:url(#radial-gradient-38);}.cls-41{opacity:0.9;fill:url(#radial-gradient-39);}.cls-42{opacity:0.93;fill:url(#radial-gradient-40);}.cls-43{opacity:0.95;fill:url(#radial-gradient-41);}.cls-44{opacity:0.98;fill:url(#radial-gradient-42);}.cls-45{fill:url(#radial-gradient-43);}.cls-46{font-size:49.77px;fill:#343484;font-family:GoudyOldStyleT-Regular, Goudy Old Style;}.cls-47{letter-spacing:-0.08em;}.cls-48{letter-spacing:0em;}.cls-49{letter-spacing:-0.02em;}.cls-50,.cls-51{font-size:203px;font-family:DeVinneBT-Text, DeVinne Txt BT;}.cls-50{fill:#000e38;}.cls-51{fill:#192367;}.cls-52{fill:url(#radial-gradient-44);}.cls-53,.cls-59,.cls-60,.cls-61,.cls-62,.cls-63,.cls-64,.cls-65,.cls-66,.cls-67,.cls-68{mix-blend-mode:screen;}.cls-53{fill:url(#radial-gradient-45);}.cls-54{mask:url(#mask);}.cls-55{fill:#e0e6ef;}.cls-55,.cls-57{opacity:0.5;}.cls-56,.cls-58{fill:#fff;}.cls-56{opacity:0.6;}.cls-59{fill:url(#radial-gradient-46);}.cls-60{fill:url(#radial-gradient-47);}.cls-61{fill:url(#radial-gradient-48);}.cls-62{fill:url(#radial-gradient-49);}.cls-63{fill:url(#radial-gradient-50);}.cls-64{fill:url(#radial-gradient-51);}.cls-65{fill:url(#radial-gradient-52);}.cls-66{fill:url(#radial-gradient-53);}.cls-67{fill:url(#radial-gradient-54);}.cls-68{fill:url(#radial-gradient-55);}.cls-69{fill:url(#linear-gradient);}.cls-70{font-size:12px;font-family:MyriadPro-Regular, Myriad Pro;}.cls-71{letter-spacing:0em;}.cls-72{letter-spacing:0.01em;}.cls-73{letter-spacing:-0.04em;}.cls-74{letter-spacing:-0.01em;}.cls-75{letter-spacing:-0.01em;}.cls-76{letter-spacing:0em;}.cls-77{letter-spacing:0em;}.cls-78{letter-spacing:-0.01em;}.cls-79{letter-spacing:0.02em;}.cls-80{letter-spacing:-0.01em;}.cls-81{letter-spacing:0em;}.cls-82{letter-spacing:0em;}.cls-83{letter-spacing:-0.01em;}.cls-84{filter:url(#luminosity-invert-noclip);}</style><radialGradient id="radial-gradient" cx="402.73" cy="237.16" r="22.51" gradientTransform="translate(0 -9.45) scale(1 1.04)" gradientUnits="userSpaceOnUse"><stop offset="0" stop-color="#040006"/><stop offset="0.1" stop-color="#2b272c"/><stop offset="0.29" stop-color="#6a686c"/><stop offset="0.47" stop-color="#9f9ea0"/><stop offset="0.63" stop-color="#c9c8c9"/><stop offset="0.78" stop-color="#e6e6e7"/><stop offset="0.91" stop-color="#f9f8f9"/><stop offset="1" stop-color="#fff"/></radialGradient><radialGradient id="radial-gradient-2" cx="180.38" cy="525.4" r="2.43" gradientTransform="translate(-874.75 178.05) scale(7.11 0.37)" gradientUnits="userSpaceOnUse"><stop offset="0" stop-color="#040006"/><stop offset="1" stop-color="#040006"/></radialGradient><radialGradient id="radial-gradient-3" cx="177.48" cy="531.47" r="2.43" gradientTransform="translate(-818.69 180.99) scale(6.91 0.36)" xlink:href="#radial-gradient-2"/><radialGradient id="radial-gradient-4" cx="174.4" cy="537.88" r="2.44" gradientTransform="translate(-762.63 183.93) scale(6.71 0.35)" xlink:href="#radial-gradient-2"/><radialGradient id="radial-gradient-5" cx="171.14" cy="544.67" r="2.45" gradientTransform="translate(-706.58 186.87) scale(6.51 0.34)" xlink:href="#radial-gradient-2"/><radialGradient id="radial-gradient-6" cx="167.67" cy="551.85" r="2.46" gradientTransform="translate(-650.52 189.81) scale(6.31 0.33)" xlink:href="#radial-gradient-2"/><radialGradient id="radial-gradient-7" cx="163.97" cy="559.48" r="2.47" gradientTransform="translate(-594.46 192.74) scale(6.11 0.32)" xlink:href="#radial-gradient-2"/><radialGradient id="radial-gradient-8" cx="160.03" cy="567.59" r="2.48" gradientTransform="translate(-538.4 195.68) scale(5.91 0.31)" xlink:href="#radial-gradient-2"/><radialGradient id="radial-gradient-9" cx="155.81" cy="576.22" r="2.5" gradientTransform="translate(-482.35 198.62) scale(5.71 0.3)" xlink:href="#radial-gradient-2"/><radialGradient id="radial-gradient-10" cx="151.28" cy="585.44" r="2.51" gradientTransform="translate(-426.29 201.56) scale(5.51 0.29)" xlink:href="#radial-gradient-2"/><radialGradient id="radial-gradient-11" cx="146.41" cy="595.3" r="2.52" gradientTransform="translate(-370.23 204.5) scale(5.31 0.28)" xlink:href="#radial-gradient-2"/><radialGradient id="radial-gradient-12" cx="141.16" cy="605.88" r="2.54" gradientTransform="translate(-314.17 207.44) scale(5.11 0.27)" xlink:href="#radial-gradient-2"/><radialGradient id="radial-gradient-13" cx="135.48" cy="617.24" r="2.55" gradientTransform="translate(-258.12 210.38) scale(4.91 0.26)" xlink:href="#radial-gradient-2"/><radialGradient id="radial-gradient-14" cx="129.32" cy="629.5" r="2.57" gradientTransform="translate(-202.06 213.32) scale(4.71 0.25)" xlink:href="#radial-gradient-2"/><radialGradient id="radial-gradient-15" cx="122.62" cy="642.74" r="2.59" gradientTransform="translate(-146 216.26) scale(4.51 0.24)" xlink:href="#radial-gradient-2"/><radialGradient id="radial-gradient-16" cx="115.29" cy="657.11" r="2.61" gradientTransform="translate(-89.94 219.19) scale(4.31 0.23)" xlink:href="#radial-gradient-2"/><radialGradient id="radial-gradient-17" cx="107.25" cy="672.74" r="2.63" gradientTransform="translate(-33.88 222.13) scale(4.11 0.22)" xlink:href="#radial-gradient-2"/><radialGradient id="radial-gradient-18" cx="98.39" cy="689.81" r="2.66" gradientTransform="translate(22.17 225.07) scale(3.91 0.21)" xlink:href="#radial-gradient-2"/><radialGradient id="radial-gradient-19" cx="88.58" cy="708.54" r="2.68" gradientTransform="translate(78.23 228.01) scale(3.71 0.2)" xlink:href="#radial-gradient-2"/><radialGradient id="radial-gradient-20" cx="77.65" cy="729.17" r="2.71" gradientTransform="translate(134.29 230.95) scale(3.51 0.19)" xlink:href="#radial-gradient-2"/><radialGradient id="radial-gradient-21" cx="65.41" cy="752.01" r="2.75" gradientTransform="translate(190.35 233.89) scale(3.31 0.18)" xlink:href="#radial-gradient-2"/><radialGradient id="radial-gradient-22" cx="51.59" cy="777.43" r="2.79" gradientTransform="translate(246.4 236.83) scale(3.11 0.17)" xlink:href="#radial-gradient-2"/><radialGradient id="radial-gradient-23" cx="35.87" cy="805.91" r="2.83" gradientTransform="translate(302.46 239.77) scale(2.91 0.16)" xlink:href="#radial-gradient-2"/><radialGradient id="radial-gradient-24" cx="17.85" cy="838.01" r="2.88" gradientTransform="translate(358.52 242.71) scale(2.71 0.15)" xlink:href="#radial-gradient-2"/><radialGradient id="radial-gradient-25" cx="-3.05" cy="874.49" r="2.93" gradientTransform="translate(414.58 245.65) scale(2.51 0.14)" xlink:href="#radial-gradient-2"/><radialGradient id="radial-gradient-26" cx="-27.55" cy="916.31" r="3" gradientTransform="translate(470.63 248.58) scale(2.31 0.13)" xlink:href="#radial-gradient-2"/><radialGradient id="radial-gradient-27" cx="-56.69" cy="964.73" r="3.08" gradientTransform="translate(526.69 251.52) scale(2.11 0.12)" xlink:href="#radial-gradient-2"/><radialGradient id="radial-gradient-28" cx="-91.91" cy="1021.45" r="3.17" gradientTransform="translate(582.75 254.46) scale(1.91 0.11)" xlink:href="#radial-gradient-2"/><radialGradient id="radial-gradient-29" cx="-135.33" cy="1088.79" r="3.28" gradientTransform="translate(638.81 257.4) scale(1.71 0.1)" xlink:href="#radial-gradient-2"/><radialGradient id="radial-gradient-30" cx="-190.22" cy="1170.05" r="3.42" gradientTransform="translate(694.87 260.34) scale(1.51 0.09)" xlink:href="#radial-gradient-2"/><radialGradient id="radial-gradient-31" cx="-261.78" cy="1270.06" r="3.6" gradientTransform="translate(750.92 263.28) scale(1.31 0.08)" xlink:href="#radial-gradient-2"/><radialGradient id="radial-gradient-32" cx="-358.99" cy="1396.12" r="3.84" gradientTransform="translate(806.98 266.22) scale(1.11 0.07)" xlink:href="#radial-gradient-2"/><radialGradient id="radial-gradient-33" cx="-498.66" cy="1559.97" r="4.18" gradientTransform="translate(863.04 269.16) scale(0.91 0.06)" xlink:href="#radial-gradient-2"/><radialGradient id="radial-gradient-34" cx="-716.33" cy="1781.58" r="4.69" gradientTransform="translate(919.1 272.1) scale(0.71 0.06)" xlink:href="#radial-gradient-2"/><radialGradient id="radial-gradient-35" cx="-1102.73" cy="2098.03" r="5.58" gradientTransform="translate(975.15 275.03) scale(0.52 0.05)" xlink:href="#radial-gradient-2"/><radialGradient id="radial-gradient-36" cx="-1978.12" cy="2586.77" r="7.56" gradientTransform="translate(1031.21 277.97) scale(0.32 0.04)" xlink:href="#radial-gradient-2"/><radialGradient id="radial-gradient-37" cx="-5870.17" cy="3441.13" r="16.42" gradientTransform="translate(1087.27 280.91) scale(0.12 0.03)" xlink:href="#radial-gradient-2"/><radialGradient id="radial-gradient-38" cx="8787.71" cy="5316.56" r="19.88" gradientTransform="matrix(-0.08, 0, 0, 0.02, 1143.33, 283.85)" xlink:href="#radial-gradient-2"/><radialGradient id="radial-gradient-39" cx="2795.3" cy="12761.64" r="13.35" gradientTransform="matrix(-0.28, 0, 0, 0.01, 1199.38, 286.79)" xlink:href="#radial-gradient-2"/><radialGradient id="radial-gradient-40" cx="1756.05" cy="-25391.53" r="20.55" gradientTransform="translate(1255.44 289.73) rotate(180) scale(0.48 0)" xlink:href="#radial-gradient-2"/><radialGradient id="radial-gradient-41" cx="1324.62" cy="-6022.35" r="3.92" gradientTransform="translate(1311.5 292.67) rotate(180) scale(0.68 0.01)" xlink:href="#radial-gradient-2"/><radialGradient id="radial-gradient-42" cx="1088.42" cy="-3303.72" r="1.53" gradientTransform="translate(1367.56 295.61) rotate(180) scale(0.88 0.02)" xlink:href="#radial-gradient-2"/><radialGradient id="radial-gradient-43" cx="939.39" cy="-2219.59" r="0.55" gradientTransform="translate(1423.62 298.55) rotate(180) scale(1.08 0.03)" xlink:href="#radial-gradient-2"/><radialGradient id="radial-gradient-44" cx="403.48" cy="248.86" r="19.55" gradientTransform="translate(813 -55.56) scale(1 1.04)" gradientUnits="userSpaceOnUse"><stop offset="0" stop-color="#619bcb"/><stop offset="0.14" stop-color="#5d96c7"/><stop offset="0.31" stop-color="#5387ba"/><stop offset="0.49" stop-color="#416da5"/><stop offset="0.69" stop-color="#294b88"/><stop offset="0.83" stop-color="#142c6e"/><stop offset="0.86" stop-color="#1b3777"/><stop offset="0.91" stop-color="#2f548f"/><stop offset="0.97" stop-color="#5082b6"/><stop offset="1" stop-color="#619bcb"/></radialGradient><radialGradient id="radial-gradient-45" cx="402.54" cy="247.28" r="19.81" gradientTransform="translate(0 -9.45) scale(1 1.04)" gradientUnits="userSpaceOnUse"><stop offset="0" stop-color="#619bcb"/><stop offset="0.23" stop-color="#649dcc"/><stop offset="0.4" stop-color="#6da2cd"/><stop offset="0.55" stop-color="#7eabd0"/><stop offset="0.69" stop-color="#94b8d5"/><stop offset="0.83" stop-color="#b2c8da"/><stop offset="0.95" stop-color="#d5dce1"/><stop offset="1" stop-color="#e4e4e4"/></radialGradient><filter id="luminosity-invert-noclip" x="387.99" y="231.44" width="31.32" height="27.55" filterUnits="userSpaceOnUse" color-interpolation-filters="sRGB"><feColorMatrix values="-1 0 0 0 1 0 -1 0 0 1 0 0 -1 0 1 0 0 0 1 0" result="invert"/><feFlood flood-color="#fff" result="bg"/><feBlend in="invert" in2="bg"/></filter><mask id="mask" x="1200.99" y="185.33" width="31.32" height="27.55" maskUnits="userSpaceOnUse"><g class="cls-84"><g transform="translate(813 -46.12)"><rect class="cls-1" x="387.99" y="231.44" width="31.32" height="27.55"/></g></g></mask><radialGradient id="radial-gradient-46" cx="749.26" cy="101.72" r="1.21" gradientTransform="matrix(-0.15, 1.03, -0.99, -0.15, 611.38, -489.37)" gradientUnits="userSpaceOnUse"><stop offset="0" stop-color="#fff" stop-opacity="0.87"/><stop offset="1" stop-color="#040006" stop-opacity="0"/></radialGradient><radialGradient id="radial-gradient-47" cx="745.99" cy="115.14" r="1.21" xlink:href="#radial-gradient-46"/><radialGradient id="radial-gradient-48" cx="732.99" cy="88.99" r="1.21" xlink:href="#radial-gradient-46"/><radialGradient id="radial-gradient-49" cx="410.69" cy="234.18" r="1.02" gradientTransform="translate(0 -9.45) scale(1 1.04)" xlink:href="#radial-gradient-46"/><radialGradient id="radial-gradient-50" cx="733.5" cy="109.67" r="1.21" xlink:href="#radial-gradient-46"/><radialGradient id="radial-gradient-51" cx="736.43" cy="83.11" r="1.21" xlink:href="#radial-gradient-46"/><radialGradient id="radial-gradient-52" cx="723.25" cy="105.93" r="0.78" xlink:href="#radial-gradient-46"/><radialGradient id="radial-gradient-53" cx="735.32" cy="113.64" r="0.78" xlink:href="#radial-gradient-46"/><radialGradient id="radial-gradient-54" cx="751.47" cy="105.9" r="0.78" xlink:href="#radial-gradient-46"/><radialGradient id="radial-gradient-55" cx="744.51" cy="89.58" r="1.21" xlink:href="#radial-gradient-46"/><linearGradient id="linear-gradient" x1="421.77" y1="235.54" x2="389.89" y2="193.23" gradientUnits="userSpaceOnUse"><stop offset="0" stop-color="#1a5da4"/><stop offset="0.41" stop-color="#1884b2"/><stop offset="0.6" stop-color="#3394b9"/><stop offset="0.86" stop-color="#54a7c1"/><stop offset="1" stop-color="#61aec4"/></linearGradient></defs><title>saddads [Recuperado]</title><g class="cls-2"><g id="Capa_1" data-name="Capa 1"><text x="813" y="-46.12"></text><g class="cls-3"><ellipse class="cls-4" cx="406.92" cy="370.24" rx="14.75" ry="1"/><ellipse class="cls-5" cx="406.92" cy="370.24" rx="14.4" ry="0.98"/><ellipse class="cls-6" cx="406.92" cy="370.24" rx="14.06" ry="0.95"/><ellipse class="cls-7" cx="406.92" cy="370.24" rx="13.71" ry="0.93"/><ellipse class="cls-8" cx="406.92" cy="370.24" rx="13.36" ry="0.9"/><ellipse class="cls-9" cx="406.92" cy="370.24" rx="13.01" ry="0.88"/><ellipse class="cls-10" cx="406.92" cy="370.24" rx="12.67" ry="0.86"/><ellipse class="cls-11" cx="406.92" cy="370.24" rx="12.32" ry="0.83"/><ellipse class="cls-12" cx="406.92" cy="370.24" rx="11.97" ry="0.81"/><ellipse class="cls-13" cx="406.92" cy="370.24" rx="11.62" ry="0.78"/><ellipse class="cls-14" cx="406.92" cy="370.24" rx="11.28" ry="0.76"/><ellipse class="cls-15" cx="406.92" cy="370.24" rx="10.93" ry="0.74"/><ellipse class="cls-16" cx="406.92" cy="370.24" rx="10.58" ry="0.71"/><ellipse class="cls-17" cx="406.92" cy="370.24" rx="10.24" ry="0.69"/><ellipse class="cls-18" cx="406.92" cy="370.24" rx="9.89" ry="0.66"/><ellipse class="cls-19" cx="406.92" cy="370.24" rx="9.54" ry="0.64"/><ellipse class="cls-20" cx="406.92" cy="370.24" rx="9.19" ry="0.62"/><ellipse class="cls-21" cx="406.92" cy="370.24" rx="8.85" ry="0.59"/><ellipse class="cls-22" cx="406.92" cy="370.24" rx="8.5" ry="0.57"/><ellipse class="cls-23" cx="406.92" cy="370.24" rx="8.15" ry="0.55"/><ellipse class="cls-24" cx="406.92" cy="370.24" rx="7.8" ry="0.52"/><ellipse class="cls-25" cx="406.92" cy="370.24" rx="7.46" ry="0.5"/><ellipse class="cls-26" cx="406.92" cy="370.24" rx="7.11" ry="0.47"/><ellipse class="cls-27" cx="406.92" cy="370.24" rx="6.76" ry="0.45"/><ellipse class="cls-28" cx="406.92" cy="370.24" rx="6.41" ry="0.43"/><ellipse class="cls-29" cx="406.92" cy="370.24" rx="6.07" ry="0.4"/><ellipse class="cls-30" cx="406.92" cy="370.24" rx="5.72" ry="0.38"/><ellipse class="cls-31" cx="406.92" cy="370.24" rx="5.37" ry="0.35"/><ellipse class="cls-32" cx="406.92" cy="370.24" rx="5.02" ry="0.33"/><ellipse class="cls-33" cx="406.92" cy="370.24" rx="4.68" ry="0.31"/><ellipse class="cls-34" cx="406.92" cy="370.24" rx="4.33" ry="0.28"/><ellipse class="cls-35" cx="406.92" cy="370.24" rx="3.98" ry="0.26"/><ellipse class="cls-36" cx="406.92" cy="370.24" rx="3.63" ry="0.23"/><ellipse class="cls-37" cx="406.92" cy="370.24" rx="3.29" ry="0.21"/><ellipse class="cls-38" cx="406.92" cy="370.24" rx="2.94" ry="0.19"/><ellipse class="cls-39" cx="406.92" cy="370.24" rx="2.59" ry="0.16"/><ellipse class="cls-40" cx="406.92" cy="370.24" rx="2.24" ry="0.14"/><ellipse class="cls-41" cx="406.92" cy="370.24" rx="1.9" ry="0.12"/><ellipse class="cls-42" cx="406.92" cy="370.24" rx="1.55" ry="0.09"/><ellipse class="cls-43" cx="406.92" cy="370.24" rx="1.2" ry="0.07"/><ellipse class="cls-44" cx="406.92" cy="370.24" rx="0.85" ry="0.04"/><ellipse class="cls-45" cx="406.92" cy="370.24" rx="0.51" ry="0.02"/></g><text class="cls-46" transform="translate(1013.63 405.79) scale(0.96 1)"><tspan class="cls-47">T</tspan><tspan class="cls-48" x="26.27" y="0">e</tspan><tspan class="cls-49" x="47.15" y="0">c</tspan><tspan x="66.25" y="0">hnology</tspan></text><text class="cls-50" transform="translate(1004.75 363.77) scale(0.96 1)">WIF</text><text class="cls-51" transform="translate(1004.75 363.77) scale(0.96 1)">WIF</text><g id="globe"><ellipse class="cls-52" cx="1215.99" cy="205.34" rx="16.89" ry="17.54"/><path class="cls-53" d="M419.16,256.28c-.22,0-.51.11-.52.19s-.31.22-.41.27a1.37,1.37,0,0,0-.34.48c0,.11-.29.08-.39.12s-.28.2-.28.3-.05.09-.11,0l-.12.13-.14.17a1.36,1.36,0,0,1-.45.64c-.09,0-.11.5-.11.69a.91.91,0,0,0,.16.52l0,.15,0,.3a.56.56,0,0,0,.17.48,2.32,2.32,0,0,0,.63-.12,1.11,1.11,0,0,0,.23-.1,17.82,17.82,0,0,0,1.74-4.2Zm-27.95.45s.28.37.4.48a3.2,3.2,0,0,1,.42.81,1.36,1.36,0,0,1,0,.52c0,.07.06.21.07.27a4.47,4.47,0,0,0-.06.79c0,.21-.23.86-.23,1.18s.15.74.2.71.08.29,0,.33-.2.3-.15.31,0,.27,0,.37.1.77.11.94a5,5,0,0,0,.3.71c0,.14.1.4.12.44l0,.08a1.43,1.43,0,0,1,.24.11,1.45,1.45,0,0,0,.54,0c.12,0,0-.14,0-.2s-.1-.36-.16-.39a.7.7,0,0,1,0-.49c.05-.08.27-.22.29-.29s0-.4,0-.45,0-.45,0-.64.33-.38.35-.54.43-.33.52-.41a1,1,0,0,0,.13-.63c0-.1.15-.18.24-.18s.18-.06.22-.06.14-.2.19-.25.17-.52.27-.6a.84.84,0,0,0,.18-.45,1.44,1.44,0,0,1,.21-.41,2.21,2.21,0,0,1,.5-.28,3.28,3.28,0,0,0,.2-.89c0-.23.14-.53.15-.61s.13-.14.15-.16a4.14,4.14,0,0,1,.17-.38,1.9,1.9,0,0,0,.27-.41,2.62,2.62,0,0,1,.07-.35v-.4c-.07-.19-.27-.43-.32-.38s-.29-.17-.41-.22a2.24,2.24,0,0,0-.5-.08c-.08,0-.34-.22-.45-.26s-.42-.1-.47-.13-.13-.5-.37-.65a2.66,2.66,0,0,1-.71-.63c0-.13-.51-.4-.65-.48a.55.55,0,0,0-.39-.07s-.21-.25-.3-.33-.37-.14-.38-.07-.2,0-.24,0-.19,0-.25,0-.3.39-.4.47-.23-.08-.3-.11a.75.75,0,0,0-.41.11c-.07.05-.24-.39-.2-.59s-.17-.6-.34-.62-.22-.43-.18-.59-.3-.25-.38-.26-.29.21-.32.31-.78-.14-.7-.61a2.15,2.15,0,0,1,.53-1,1.3,1.3,0,0,1,.68,0,.17.17,0,0,0,.22,0,1.37,1.37,0,0,1,.53.05c.12,0,.28.52.41.58s.17-.3.19-.39a.93.93,0,0,0-.09-.37,1.31,1.31,0,0,1,.38-.73.9.9,0,0,0,.36-.47c0-.06.15-.1.19-.12s0-.48.07-.59a2.17,2.17,0,0,1,.53-.36.44.44,0,0,0,.15-.39c0-.05.28-.34.45-.39s.31.1.27.12l.36-.21c.11-.08,0-.29-.07-.36s0-.31.06-.34.17-.24.14-.29.37,0,.52-.08,0,.28-.07.43a.18.18,0,0,0,.15.28c.07,0,.14.08.16.13s.16,0,.26,0,.16-.14.17-.23-.24-.26-.27-.36a6.58,6.58,0,0,1-.06-.82c0-.12-.16-.32-.21-.28s-.15-.32-.24-.39a.45.45,0,0,1-.1-.3c0-.06-.28-.36-.34-.5s-.16-.11-.17,0-.2.07-.28.07-.15-.33-.15-.45-.36-.14-.42-.24-.3-.05-.33-.12a.37.37,0,0,0-.29-.11s0,.9-.06,1.14-.23.44-.3.44,0,.17,0,.15-.14.26-.16.44-.2,0-.23-.17-.2-.38-.23-.33-.15-.07-.2,0-.37-.19-.5-.27-.2-.49-.28-.52,0-.09,0-.15.25-.31.33-.4a4.8,4.8,0,0,1,.47-.56.51.51,0,0,0,.18-.34,2.9,2.9,0,0,1,.61-.25c.13,0,.25-.44.27-.55a.47.47,0,0,0-.15-.35c-.06,0,.19,0,.27,0s.34-.08.44,0l.45.28,0,.28-.06.48c-.39.17-.5.46-.37.45a3.15,3.15,0,0,1,.93.41c.18.13.23-.19.28-.3a.81.81,0,0,0,0-.48c0-.06.2,0,.27,0s.15-.07.2-.1.08-.29.11-.34-.12-.11-.12-.17-.28-.19-.37-.24a.23.23,0,0,1-.07-.28s0-.29-.08-.37-.34-.15-.43-.15-.2-.23-.25-.27a1.44,1.44,0,0,0-.52,0c-.09,0-.26-.28-.42-.18s-.32-.11-.39-.15-.44.37-.43.65a.82.82,0,0,0,.2.57c.06,0,0,.27-.08.34s-.22-.08-.16-.14-.16-.37-.23-.49a.92.92,0,0,0-.37-.22l-.22.26a.67.67,0,0,1,0,.34c-.05.18-.2.2-.2.13s-.08-.06-.16-.07a17.83,17.83,0,0,0-3.81,9.19,1.07,1.07,0,0,1,.2.29c0,.15.31.26.35.29s.06-.3,0-.38.06-.14.06-.07a2.41,2.41,0,0,0,.32.45c.08.1.16.77.24.92a3,3,0,0,0,1.06.49,1.3,1.3,0,0,1,.59.41c0,.08.36.12.43.15s.23.26.3.3a.39.39,0,0,1,.12.22s.42.2.52.32a.22.22,0,0,0,.3,0s.11.23.16.33a.65.65,0,0,1,0,.37,4.86,4.86,0,0,1-.17.56,2.35,2.35,0,0,0-.19.85,1,1,0,0,0,.32.43.1.1,0,0,1,0,.18c-.07,0,0,.62.12.71A.62.62,0,0,1,391.22,256.73Zm2-10.7h0Zm-1.16-7.41c.2,0,.54-.09.56-.15a.38.38,0,0,0,0-.24h.1c.08,0,.21-.44.29-.54a4.14,4.14,0,0,1,.65-.32,4.69,4.69,0,0,1,.44-.34c.09,0,.23-.25.21-.3s.31-.26.44-.31.19-.21.14-.22-.74.38-1.38.76a17.13,17.13,0,0,0-2.08,1.74Zm12.24,21.87a6.1,6.1,0,0,0,.71-.82,1.93,1.93,0,0,0,.23-.64.6.6,0,0,1,.28-.27,11.87,11.87,0,0,1,.48-1.17,3.57,3.57,0,0,0,.39-1.57,5.16,5.16,0,0,1,.17-1.21,1.6,1.6,0,0,1,.36-.52,11.43,11.43,0,0,0,.69-1,2.35,2.35,0,0,0,.26-1c0-.13-.35-.22-.41-.16a1.06,1.06,0,0,1-.46.12c-.1,0-.32-.54-.46-.65s-.26-.73-.34-.85a5.5,5.5,0,0,0-.37-.48c-.07-.07-.08-.4-.1-.49s.14.06.16.19a6.41,6.41,0,0,0,.5.84c.11.18.4.75.48.92s.73.09.94,0a1.39,1.39,0,0,0,.48-.34c0-.06.35-.22.44-.3s.18-.48.24-.55,0-.45-.12-.57a.58.58,0,0,0-.47-.16c-.07,0-.21-.26-.27-.37s-.31-.25-.34-.33.07-.2.11-.22a2.16,2.16,0,0,1,.65.49,3.71,3.71,0,0,1,.32.55.67.67,0,0,0,.48,0c.08-.06.18,0,.21,0l.12,0,.41-.07a.86.86,0,0,1,.25.45.42.42,0,0,0,.2.24c.08,0,.14.3.16.37s.26.49.31.67a4.23,4.23,0,0,0,.3.61,1.56,1.56,0,0,1,.09.43.31.31,0,0,0,.24.21c.09,0,.28-.62.33-.85a.64.64,0,0,1,.24-.42s.08-.13.08-.18.24,0,.26-.11.09-.47.18-.53a3.67,3.67,0,0,1,.49-.31c.11,0,.38.2.44.32a1,1,0,0,1,.09.45s.14.3.29.29.19.19.19.26.2.27.23.36a.83.83,0,0,1,0,.39,1.38,1.38,0,0,0,0,.47,4.45,4.45,0,0,0,.64.7c.17.14.25-.29.16-.42s-.37-.45-.44-.54a1.18,1.18,0,0,1-.05-.57c0-.11.25.06.35.13a.75.75,0,0,1,.22.3c0,.06.6-.29.62-.67a4,4,0,0,1,.24-.9c0-.1-.06-.24-.11-.24s.09-.29.25-.28.57-.46.66-.64a1.43,1.43,0,0,1,.31-.36,3.31,3.31,0,0,0,.18-.64,2,2,0,0,0-.11-.56,1.82,1.82,0,0,0-.2-.38.82.82,0,0,1,0-.37s.17-.1.19-.14.19-.23.18-.32.11.11.19.18.16.52.26.57.49-.47.44-.81a1.08,1.08,0,0,1,.21-.81,2.16,2.16,0,0,0,.38-.5,17.72,17.72,0,0,0-4.17-6.82h-.06l-.14,0c-.24-.05-.38-.32-.34-.39a.18.18,0,0,0,0-.12l-.41-.37h-.31a1.26,1.26,0,0,1-.52-.17c-.06-.06-.25.05-.26.16s-.34.16-.37.24a.17.17,0,0,1-.24,0s-.34.11-.49.14a2.55,2.55,0,0,0-.51.18.82.82,0,0,0-.26.26c0,.07-.22.18-.29.21s-.05.32,0,.36-.15,0-.25-.09-.22.13-.25.19-.13,0-.12-.13-.25-.16-.29-.09-.21,0-.29-.06-.39.3-.51.43a1.36,1.36,0,0,1-.79.17c-.11,0-.21.26-.12.28s-.23,0-.4,0a2.79,2.79,0,0,0-.81.32.13.13,0,0,1-.22-.09c0-.07-.19-.14-.25-.16s-.17.4-.27.48-.22-.33-.46-.39-.61-.31-.72-.33a1.45,1.45,0,0,1-.38-.33,1,1,0,0,0-.46-.12,1.48,1.48,0,0,0-.5.26c-.09.07-.21.06-.25.09s-.4.39-.54.5a4.54,4.54,0,0,0-.46.72.32.32,0,0,1-.24.14s-.08.13-.08.18-.41.27-.45.46a4.63,4.63,0,0,0,0,.79c0,.16.15.47.27.47s.05.27,0,.34.07.15.07.22-.29.15-.37.19a.68.68,0,0,0-.25.32c0,.07-.29.12-.38.21a2.16,2.16,0,0,1,.08-.21.35.35,0,0,0-.06-.32s-.06-.55-.13-.66a2.23,2.23,0,0,0-.28-.33s0-.17.05-.23-.23-.09-.3,0-.11.55-.14.69a.46.46,0,0,0,.17.36s0,.26-.06.27-.17.37-.13.46-.06.25-.12.28.34,0,.52,0,.32.08.3.09-.35.07-.4.15-.28.23-.32.3.07.2.17.19.2.34.27.4,0,.24,0,.29-.47,0-.64,0-.38.41-.39.55a3.5,3.5,0,0,0,0,.65c0,.11.37.18.44.23s.41,0,.48,0,.29-.35.34-.53.4-.51.48-.63.46-.11.55-.17,0,.3.09.51.41.18.36,0,0-.27.05-.2.37.22.44.32,0,.33,0,.33-.08.25,0,.27.19-.28.28-.33.16-.24.12-.25.08-.19.13-.13a2.18,2.18,0,0,0-.34-.53c-.15-.16,0-.09.24.16l.19.28c0,.05.09.21.12.26l0,.08a2,2,0,0,1,.07.44.31.31,0,0,0,.25.21c.09,0,.16,0,.14,0s.06.19.15.2.13-.24,0-.25-.08-.36-.09-.52.07-.28.1-.28,0,.32,0,.39a1.09,1.09,0,0,0,.08.32l.1.08.21.17c.31-.09.72,0,.7,0s.23.08.24,0,0,0,0,.08-.2.36-.23.49-.74,0-1,0-.75.08-.79.18-.51-.22-.73-.31-.39-.44-.43-.49,0-.16,0-.22-.52-.08-.66,0-.89.14-1.07.22a.91.91,0,0,1-.52,0c-.08,0-.28.24-.38.28a1.4,1.4,0,0,0-.28.8l-.14.27-.09.18a4,4,0,0,0-.6,1,6.5,6.5,0,0,0-.14,1.38,4.51,4.51,0,0,0,.34,1.16,2.73,2.73,0,0,0,.68.69,2.36,2.36,0,0,0,.81.11.5.5,0,0,0,.41-.36l.24,0h.11c0,.14.36.25.44.3a.72.72,0,0,0,.39,0c.07,0,.15.62.1.81a3.85,3.85,0,0,0,.17,1c.05.2.27.74.29.93a9.62,9.62,0,0,1-.15,1.06,4.23,4.23,0,0,0,.35,1.07,3.79,3.79,0,0,1,.14.79c0,.11.32.76.4,1S404.08,260.61,404.29,260.48Zm14-8s.22-.12.35-.14.2-.36.1-.38-.22-.29-.29-.32-.2.11-.2.22-.22.14-.27.23,0,.15,0,.14S418.22,252.46,418.24,252.5Zm-.25,1.85c.06,0,0-.36-.13-.39s-.48.44-.41.71.14.25.18.2.25,0,.31.06.06,0,0-.14A.51.51,0,0,1,418,254.35Zm-.69-.33c0-.12,0-.5.06-.57s-.2-.29-.3-.33-.45.73-.69.87a.73.73,0,0,0-.27.71c.06.11.58.17.67.25s.19,0,.24,0,0,0,0-.06.18-.23.21-.37S417.29,254.14,417.3,254Zm-1.39,1.28a.37.37,0,0,0-.43.12c0,.08.74.2,1,.27s.41.09.35,0S416.1,255.38,415.91,255.3Zm1.54-5.11c.06-.09-.08-.5-.16-.41s0,.33,0,.42S417.39,250.28,417.45,250.19Zm.46.88c0-.11-.05-.22-.22-.26s-.14.48-.07.54S417.86,251.18,417.91,251.07Zm.85,3.17c.2.14.63.08.65-.2C419.21,253.91,418.74,253.93,418.76,254.24Zm-.1-6.27a.29.29,0,0,0-.1.27h0c-.06,0-.07.27,0,.31s.23-.21.32-.27a.46.46,0,0,1,.29-.08.73.73,0,0,0,.34-.1.3.3,0,0,0,.1-.12c0-.2-.08-.39-.13-.58l-.22.17C419.12,247.65,418.76,247.89,418.65,248Zm-4.47,5.39h0S414.14,253.34,414.18,253.37Zm1.22,1.18a2.13,2.13,0,0,0-.52-.63l-.08-.14-.09-.15c-.08-.17-.32-.3-.34-.35s-.1.15-.18.09l.26.19a12.06,12.06,0,0,1,.77,1.39C415.31,255,415.47,254.71,415.4,254.54Zm-3.49-1.85c-.06.13.32.4.35.34a.77.77,0,0,0-.12-.45C412.07,252.52,412,252.57,411.9,252.7Zm-5.11,6.11c0,.14.28.24.36.22a1.5,1.5,0,0,0,.32-.55,2.78,2.78,0,0,0,.05-.43.42.42,0,0,1,.07-.21.75.75,0,0,0,.11-.31,8.68,8.68,0,0,0-.17-1c0-.13-.14.07-.18.19s-.38.39-.46.5a1.12,1.12,0,0,0-.13.54.83.83,0,0,1-.07.38A4.14,4.14,0,0,0,406.79,258.81Zm-12.48,5h.23C394.59,263.54,394.3,263.59,394.31,263.8Zm6.2-27.19a.77.77,0,0,1-.39-.09,1,1,0,0,0-.53,0c-.11,0,0-.28.12-.31s0-.26-.14-.26-.56-.06-.65,0-.28-.07-.34-.08a6.8,6.8,0,0,1-.77.14,5.34,5.34,0,0,0-.9,0c-.12,0-.21.28-.19.36s-.54.09-.71.09a5.65,5.65,0,0,0-1.35.35c-.24.14-.43.49-.35.5s-.14.21-.27.26-.44.07-.52.14.08.13.11.18.12,0,.2,0a3.81,3.81,0,0,0,.42.1c.07,0-.23.09-.37.1s-.11.3,0,.34.42.08.45,0,.36.05.5.07.26.4.3.48a1.25,1.25,0,0,1,0,.46c0,.08.26.24.31.18s0,.13-.07.12,0,.31.1.36,0,.24,0,.3,0,.25-.11.32.28.71.28,1,.2.6.27.6.34.07.37.14.16,0,.21-.1a2.73,2.73,0,0,0,.24-.35,8.86,8.86,0,0,0,.28-.87c0-.07.32,0,.39-.06a3.31,3.31,0,0,0,.32-.24c.06,0,.48-.24.6-.32s.31-.46.4-.54,0-.06-.16-.13a.13.13,0,0,1,0-.21,1.31,1.31,0,0,1,.49.11c.12,0,.34-.12.26-.19s0-.06,0,0,.09-.22,0-.26.35-.34.28-.63.11-.57.21-.57.07-.32-.05-.35,0-.06,0-.1a.69.69,0,0,0,.08-.38c0-.05.19-.12.23-.18a1,1,0,0,1,.38-.21C400.56,236.85,400.61,236.6,400.51,236.61Zm2.2.23c-.12,0-.37.1-.33.17s-.2-.1-.36,0-.2.38-.13.42.13.27.13.32.31,0,.39-.05.07.24,0,.32,0,.25.11.26.2.22.29.22.24-.36.27-.49.33,0,.47,0,.19-.49,0-.57-.33,0-.39-.1a.5.5,0,0,0-.23-.13C402.9,237.2,402.84,236.89,402.72,236.84Zm1.18.25a.81.81,0,0,0,.57-.23c.06-.06-.66-.21-.94-.22s-.5,0-.49.09A2.64,2.64,0,0,0,403.9,237.1Zm-4.36,6.71c-.06,0-.1.22-.08.31s.23.09.33.07A.19.19,0,0,0,400,244c0-.08-.14-.45-.19-.45S399.61,243.83,399.54,243.8Zm.71-2.85c0-.09-.42-.08-.52-.09a1.06,1.06,0,0,1-.42-.16c-.05-.06-.09.24-.18.28s0,.1.08.06,0,.16,0,.22.25.11.28.21a.24.24,0,0,0,.26.14c.11,0,.34-.14.42-.15S400.3,241,400.25,241Zm7.87-2.23c.13-.13.66-.32.72-.45a.18.18,0,0,0-.09-.25.21.21,0,0,0-.13.09s-.62.17-.81.26a2.1,2.1,0,0,0-.48.32,8,8,0,0,0-.25.78c0,.07.2.32.31.4a.39.39,0,0,0,.3,0,1.72,1.72,0,0,0-.11-.6C407.51,239.13,408,238.86,408.12,238.72Zm-.65-1.63c.2.21.31-.09.53-.06C408,236.61,407.45,236.76,407.47,237.09Zm3.89.08c0,.08.55.14.72.11s0-.29-.27-.28S411.36,237.1,411.35,237.17Zm-20.25,4.31c-.06.06,0,.34.11.35s.29-.43.43-.34.23.12.21.08a4.05,4.05,0,0,0-.46-.26S391.17,241.42,391.11,241.48Zm1.43,9.64s.24,0,.28,0,0-.14,0-.14S392.54,251.07,392.54,251.12Zm-1.09-.42c.12,0,.06.17.09.24s.31.13.36.17.2-.09.31-.07,0-.4-.23-.39-.34-.18-.38-.2a3,3,0,0,1-.33-.21,2.53,2.53,0,0,0-.7-.1.53.53,0,0,0-.37.23c0,.06.26.1.34.05a.79.79,0,0,1,.54.14A.41.41,0,0,0,391.45,250.7Zm-.51.42s.25,0,.3,0,.06,0,0-.09S390.94,251.07,390.94,251.12Zm.17-1.32c-.06,0-.12.08-.12.13a.09.09,0,0,0,.08.09S391.18,249.83,391.11,249.81Zm.52,0a.24.24,0,0,0-.16-.09s-.06.09,0,.19S391.65,249.89,391.63,249.85Zm.37.59c.1-.05.11-.17.05-.17s-.17-.18-.23-.2-.12.11-.12.17,0,.1.08.09S391.9,250.49,392,250.44Zm27.5,4c-.05,0-.3.06-.33,0s-.08.1-.14.13,0,.16.05.12.29.11.48.23c0-.2.07-.39.1-.59Z" transform="translate(813 -46.12)"/><g class="cls-54"><ellipse class="cls-55" cx="1215.92" cy="199.1" rx="12.71" ry="11.1"/></g><path class="cls-56" d="M407.27,234.43a5.49,5.49,0,0,0-.86-.28c-2.62-.61-5.42.79-7.81,3.53a26.38,26.38,0,0,0-5.4,11.44v0a26.66,26.66,0,0,0,0,12.7c.9,3.19,2.56,5.53,4.8,6.4-2.18-.91-3.8-3.22-4.69-6.35a26.66,26.66,0,0,1,0-12.7v0a26.37,26.37,0,0,1,5.4-11.44c2.4-2.75,5.19-4.14,7.81-3.53A5.5,5.5,0,0,1,407.27,234.43Z" transform="translate(813 -46.12)"/><path class="cls-56" d="M386.57,256.18a6,6,0,0,0,.1.93c.51,2.73,2.85,4.82,6.23,6a24.05,24.05,0,0,0,12.22.55h0a24.24,24.24,0,0,0,11.16-5.09c2.44-2.13,3.84-4.63,3.71-7.11.07,2.43-1.32,4.89-3.72,7a24.24,24.24,0,0,1-11.16,5.09h0a24,24,0,0,1-12.22-.55c-3.37-1.18-5.71-3.27-6.23-6A6.07,6.07,0,0,1,386.57,256.18Z" transform="translate(813 -46.12)"/><path class="cls-56" d="M392.73,237.49a5.6,5.6,0,0,0-.78.48c-2.18,1.62-3,4.71-2.68,8.4a26.55,26.55,0,0,0,4.6,11.81v0a25.08,25.08,0,0,0,9.12,8.45c2.89,1.43,5.67,1.71,7.8.56-2.11,1.08-4.84.79-7.68-.61a25.08,25.08,0,0,1-9.12-8.45v0a26.55,26.55,0,0,1-4.6-11.81c-.37-3.69.49-6.78,2.68-8.4A5.63,5.63,0,0,1,392.73,237.49Z" transform="translate(813 -46.12)"/><g class="cls-57"><path class="cls-58" d="M393.86,248.8a2,2,0,1,1,1.89-2A1.93,1.93,0,0,1,393.86,248.8Zm0-3.9a1.94,1.94,0,1,0,1.87,1.94A1.91,1.91,0,0,0,393.86,244.91Z" transform="translate(813 -46.12)"/><path class="cls-58" d="M393.86,249.94a3.1,3.1,0,1,1,3-3.1A3,3,0,0,1,393.86,249.94Zm0-6.16a3.07,3.07,0,1,0,3,3.07A3,3,0,0,0,393.86,243.78Z" transform="translate(813 -46.12)"/><path class="cls-58" d="M393.86,247.81a1,1,0,1,1,.93-1A1,1,0,0,1,393.86,247.81Zm0-1.92a1,1,0,1,0,.92,1A.94.94,0,0,0,393.86,245.89Z" transform="translate(813 -46.12)"/></g><g class="cls-57"><path class="cls-58" d="M414.31,251.3a1.78,1.78,0,1,1,1.72-1.78A1.75,1.75,0,0,1,414.31,251.3Zm0-3.55a1.77,1.77,0,1,0,1.7,1.76A1.74,1.74,0,0,0,414.31,247.75Z" transform="translate(813 -46.12)"/><path class="cls-58" d="M414.31,252.16a2.64,2.64,0,1,1,2.54-2.64A2.59,2.59,0,0,1,414.31,252.16Zm0-5.25a2.61,2.61,0,1,0,2.52,2.61A2.57,2.57,0,0,0,414.31,246.91Z" transform="translate(813 -46.12)"/><path class="cls-58" d="M414.31,250.59a1.07,1.07,0,1,1,1-1.07A1.05,1.05,0,0,1,414.31,250.59Zm0-2.12a1.05,1.05,0,1,0,1,1.05A1,1,0,0,0,414.31,248.47Z" transform="translate(813 -46.12)"/></g><g class="cls-57"><path class="cls-58" d="M411.9,262.54a1.36,1.36,0,1,1,1.31-1.36A1.34,1.34,0,0,1,411.9,262.54Zm0-2.71a1.35,1.35,0,1,0,1.3,1.35A1.33,1.33,0,0,0,411.9,259.83Z" transform="translate(813 -46.12)"/><path class="cls-58" d="M411.9,262a.82.82,0,1,1,.79-.82A.8.8,0,0,1,411.9,262Zm0-1.62a.8.8,0,1,0,.77.8A.79.79,0,0,0,411.9,260.38Z" transform="translate(813 -46.12)"/></g><g class="cls-57"><path class="cls-58" d="M399.3,266.09a1.91,1.91,0,1,1,1.84-1.91A1.88,1.88,0,0,1,399.3,266.09Zm0-3.8a1.89,1.89,0,1,0,1.82,1.89A1.86,1.86,0,0,0,399.3,262.29Z" transform="translate(813 -46.12)"/><path class="cls-58" d="M399.3,265.33a1.15,1.15,0,1,1,1.1-1.14A1.13,1.13,0,0,1,399.3,265.33Zm0-2.27a1.13,1.13,0,1,0,1.09,1.13A1.11,1.11,0,0,0,399.3,263.05Z" transform="translate(813 -46.12)"/></g><path class="cls-56" d="M412.89,237.87c-1.29-3.83-3.27-6.07-5.58-6.32-1.7-.18-3.37.51-5,2.38h.2c1.55-1.76,3.15-2.4,4.77-2.22,2.25.24,4.19,2.45,5.46,6.22a38.12,38.12,0,0,1-2.81,27.57c-2,3.41-4.34,5.16-6.6,4.91a4.75,4.75,0,0,1-2.92-1.6l-.23,0a5,5,0,0,0,3.13,1.78l.43,0c2.17,0,4.4-1.76,6.3-5a38.27,38.27,0,0,0,2.82-27.7Z" transform="translate(813 -46.12)"/><path class="cls-56" d="M416.48,235c-1.76-1.82-4.9-2-8.84-.54l-.17.07.24.07c3.88-1.45,7-1.27,8.66.51s1.88,5,.48,9a36.16,36.16,0,0,1-8.18,12.59,34.66,34.66,0,0,1-12.13,8.5c-3.89,1.46-7,1.28-8.68-.5-1.5-1.56-1.82-4.28-.89-7.68l-.08-.26c-1,3.56-.71,6.42.87,8.06a5.48,5.48,0,0,0,4.1,1.52,13.74,13.74,0,0,0,4.74-1,34.81,34.81,0,0,0,12.18-8.53h0A36.32,36.32,0,0,0,417,244.2C418.42,240.1,418.24,236.84,416.48,235Z" transform="translate(813 -46.12)"/><path class="cls-56" d="M415.43,250a30.52,30.52,0,0,0-12.76-3.63h0a30.31,30.31,0,0,0-13.13,1.6c-3.53,1.39-5.57,3.44-5.73,5.76s1.42,4.48,4.48,6.37l-.13-.25c-2.88-1.83-4.37-4-4.21-6.11s2.17-4.26,5.65-5.63a30.18,30.18,0,0,1,13.08-1.59h0a30.38,30.38,0,0,1,12.7,3.61c3.24,1.9,4.93,4.19,4.77,6.45a5.7,5.7,0,0,1-2.84,4.2l-.18.29a9.33,9.33,0,0,0,1.21-.94,5.29,5.29,0,0,0,1.94-3.54C420.44,254.28,418.72,251.94,415.43,250Z" transform="translate(813 -46.12)"/></g><path class="cls-59" d="M399.12,265.5a1.25,1.25,0,0,1-1-1.43,1.21,1.21,0,0,1,1.37-1.05,1.25,1.25,0,0,1,1,1.43A1.22,1.22,0,0,1,399.12,265.5Z" transform="translate(813 -46.12)"/><path class="cls-60" d="M386.34,260.07a1.25,1.25,0,0,1-1-1.43,1.21,1.21,0,0,1,1.37-1.05,1.25,1.25,0,0,1,1,1.43A1.22,1.22,0,0,1,386.34,260.07Z" transform="translate(813 -46.12)"/><path class="cls-61" d="M414.13,250.76a1.25,1.25,0,0,1-1-1.43,1.21,1.21,0,0,1,1.37-1.05,1.25,1.25,0,0,1,1,1.43A1.22,1.22,0,0,1,414.13,250.76Z" transform="translate(813 -46.12)"/><path class="cls-62" d="M410.51,235a1.25,1.25,0,0,1-1-1.43,1.21,1.21,0,0,1,1.37-1.05,1.25,1.25,0,0,1,1,1.43A1.22,1.22,0,0,1,410.51,235Z" transform="translate(813 -46.12)"/><path class="cls-63" d="M393.61,248.09a1.25,1.25,0,0,1-1-1.43,1.21,1.21,0,0,1,1.37-1.05,1.25,1.25,0,0,1,1,1.43A1.22,1.22,0,0,1,393.61,248.09Z" transform="translate(813 -46.12)"/><path class="cls-64" d="M419.44,255.2a1.25,1.25,0,0,1-1-1.43,1.21,1.21,0,0,1,1.37-1.05,1.25,1.25,0,0,1,1,1.43A1.22,1.22,0,0,1,419.44,255.2Z" transform="translate(813 -46.12)"/><path class="cls-65" d="M398.89,237.7a.8.8,0,0,1-.65-.92.78.78,0,0,1,.88-.68.8.8,0,0,1,.65.92A.78.78,0,0,1,398.89,237.7Z" transform="translate(813 -46.12)"/><path class="cls-66" d="M389.47,248.9a.8.8,0,0,1-.65-.92.78.78,0,0,1,.88-.68.8.8,0,0,1,.65.92A.78.78,0,0,1,389.47,248.9Z" transform="translate(813 -46.12)"/><path class="cls-67" d="M394.72,266.68a.8.8,0,0,1-.65-.92.78.78,0,0,1,.88-.68.8.8,0,0,1,.65.92A.78.78,0,0,1,394.72,266.68Z" transform="translate(813 -46.12)"/><path class="cls-68" d="M411.84,262.5a1.25,1.25,0,0,1-1-1.43,1.21,1.21,0,0,1,1.37-1.05,1.25,1.25,0,0,1,1,1.43A1.22,1.22,0,0,1,411.84,262.5Z" transform="translate(813 -46.12)"/><path class="cls-69" d="M366.64,214.43a4.11,4.11,0,0,1-3.23-6.64,52.58,52.58,0,0,1,11-9.32,53.27,53.27,0,0,1,25.36-8.93c14.67-1,28.8,5,42,17.84a4.11,4.11,0,0,1-5.73,5.89c-11.36-11.05-23.28-16.28-35.43-15.55-9.05.55-16.67,4.37-21.47,7.48a47.22,47.22,0,0,0-9.27,7.67A4.09,4.09,0,0,1,366.64,214.43Zm12.6,8.87c.94-1.08,9.57-10.59,22-11.17,8.46-.39,17,3.46,25.35,11.44a4.11,4.11,0,0,0,5.67-5.94c-10-9.59-20.61-14.2-31.39-13.7-15.49.71-25.87,11.77-27.79,14a4.11,4.11,0,0,0,6.19,5.39ZM389,233.79a18.61,18.61,0,0,1,12-6.92c5.41-.58,10.82,2,16.09,7.62a4.11,4.11,0,0,0,6-5.61c-8.88-9.49-17.39-10.77-23-10.17-9.42,1-16.3,7.76-18.16,10.87a4.11,4.11,0,1,0,7.05,4.21Z" transform="translate(813 -46.12)"/><text x="813" y="-46.12"></text><text class="cls-70" transform="translate(0 306.88)"><tspan class="cls-71">h</tspan><tspan x="6.61" y="0">ttp://</tspan><tspan class="cls-72" x="32.1" y="0">ww</tspan><tspan class="cls-73" x="50.05" y="0">w</tspan><tspan x="58.42" y="0">.olvinaba</tspan><tspan class="cls-74" x="103.95" y="0">r</tspan><tspan x="107.76" y="0">ca.in</tspan><tspan class="cls-75" x="130.87" y="0">f</tspan><tspan x="134.22" y="0">o/es/aplicacion-and</tspan><tspan class="cls-74" x="233.54" y="0">r</tspan><tspan x="237.34" y="0">oid-pa</tspan><tspan class="cls-76" x="269.8" y="0">r</tspan><tspan class="cls-77" x="273.67" y="0">a-saca</tspan><tspan class="cls-76" x="304.83" y="0">r</tspan><tspan x="308.7" y="0">-</tspan><tspan class="cls-75" x="312.38" y="0">f</tspan><tspan x="315.73" y="0">o</tspan><tspan class="cls-78" x="322.32" y="0">t</tspan><tspan x="326.21" y="0">os</tspan><tspan class="cls-79" x="337.55" y="0">-</tspan><tspan x="341.46" y="0">en-m</tspan><tspan class="cls-80" x="367.82" y="0">o</tspan><tspan class="cls-81" x="374.32" y="0">vimie</tspan><tspan class="cls-82" x="401.73" y="0">n</tspan><tspan class="cls-83" x="408.34" y="0">t</tspan><tspan x="412.24" y="0">o</tspan></text></g></g></svg>